# Blender v2.93.6 OBJ File: 'Game_Mat.blend'
# www.blender.org
mtllib Game_Mat.mtl
o Game_Mat
v 1.500000 -0.000000 -1.500000
v 1.500000 0.000000 1.500000
v 1.500000 -0.005000 -1.500000
v 1.500000 -0.005000 1.500000
v -1.500000 -0.000000 -1.500000
v -1.500000 -0.005000 -1.500000
v -1.500000 0.000000 1.500000
v -1.500000 -0.005000 1.500000
vt 0.000000 0.000000
vt 0.000000 0.000000
vt 0.000000 0.000000
vt 0.000000 0.000000
vt 0.000000 0.000000
vt 0.000000 0.000000
vt 0.000000 0.000000
vt 0.000000 0.000000
vt 0.031272 0.968728
vt 0.031272 0.031272
vt 0.968728 0.968728
vt 0.968728 0.031272
vn 1.0000 0.0000 0.0000
vn 0.0000 0.0000 -1.0000
vn -1.0000 0.0000 0.0000
vn 0.0000 0.0000 1.0000
vn 0.0000 -1.0000 0.0000
vn 0.0000 1.0000 -0.0000
usemtl Material.001
s off
f 1/1/1 2/2/1 3/3/1
f 3/3/1 2/2/1 4/4/1
f 5/5/2 1/1/2 6/6/2
f 6/6/2 1/1/2 3/3/2
f 7/7/3 5/5/3 8/8/3
f 8/8/3 5/5/3 6/6/3
f 2/2/4 7/7/4 4/4/4
f 4/4/4 7/7/4 8/8/4
f 8/8/5 6/6/5 4/4/5
f 4/4/5 6/6/5 3/3/5
f 2/9/6 1/10/6 7/11/6
f 7/11/6 1/10/6 5/12/6
